<mxfile host="app.diagrams.net" modified="2024-02-20T14:23:29.719Z" agent="Mozilla/5.0 (Windows NT 10.0; Win64; x64) AppleWebKit/537.36 (KHTML, like Gecko) Chrome/121.0.0.0 Safari/537.36" etag="r9W9MiJV8vYXgJWlK9lY" version="23.1.5" type="device">
  <diagram name="Page-1" id="2c0d36ab-eaac-3732-788b-9136903baeff">
    <mxGraphModel dx="1985" dy="1030" grid="1" gridSize="10" guides="1" tooltips="1" connect="1" arrows="1" fold="1" page="1" pageScale="1.5" pageWidth="1169" pageHeight="827" background="none" math="0" shadow="0">
      <root>
        <mxCell id="0" />
        <mxCell id="1" parent="0" />
        <mxCell id="eEVf-GoddXqgT3L1TzJP-136" value="" style="rounded=0;whiteSpace=wrap;html=1;fillColor=#f8cecc;strokeColor=#b85450;" vertex="1" parent="1">
          <mxGeometry x="760" y="570" width="150" height="80" as="geometry" />
        </mxCell>
        <mxCell id="OHcfS93DdKTw3La22S7q-246" value="" style="rounded=0;whiteSpace=wrap;html=1;fillColor=#f8cecc;strokeColor=#b85450;" parent="1" vertex="1">
          <mxGeometry x="1594" y="529.5" width="150" height="165" as="geometry" />
        </mxCell>
        <mxCell id="OHcfS93DdKTw3La22S7q-245" value="" style="rounded=0;whiteSpace=wrap;html=1;fillColor=#f8cecc;strokeColor=#b85450;" parent="1" vertex="1">
          <mxGeometry x="1244" y="529.5" width="150" height="600.5" as="geometry" />
        </mxCell>
        <mxCell id="OHcfS93DdKTw3La22S7q-244" value="" style="rounded=0;whiteSpace=wrap;html=1;fillColor=#f8cecc;strokeColor=#b85450;" parent="1" vertex="1">
          <mxGeometry x="1414" y="529.5" width="150" height="340.5" as="geometry" />
        </mxCell>
        <mxCell id="OHcfS93DdKTw3La22S7q-241" value="" style="rounded=0;whiteSpace=wrap;html=1;fillColor=#f8cecc;strokeColor=#b85450;" parent="1" vertex="1">
          <mxGeometry x="1034" y="539" width="150" height="340.5" as="geometry" />
        </mxCell>
        <mxCell id="OHcfS93DdKTw3La22S7q-240" value="" style="rounded=0;whiteSpace=wrap;html=1;fillColor=#f8cecc;strokeColor=#b85450;" parent="1" vertex="1">
          <mxGeometry x="530" y="450" width="150" height="440" as="geometry" />
        </mxCell>
        <mxCell id="OHcfS93DdKTw3La22S7q-239" value="" style="rounded=0;whiteSpace=wrap;html=1;fillColor=#f8cecc;strokeColor=#b85450;" parent="1" vertex="1">
          <mxGeometry x="190" y="450" width="150" height="260" as="geometry" />
        </mxCell>
        <mxCell id="OHcfS93DdKTw3La22S7q-236" value="" style="rounded=0;whiteSpace=wrap;html=1;fillColor=#dae8fc;strokeColor=#6c8ebf;" parent="1" vertex="1">
          <mxGeometry x="1244" y="440" width="500" height="80" as="geometry" />
        </mxCell>
        <mxCell id="OHcfS93DdKTw3La22S7q-233" value="" style="rounded=0;whiteSpace=wrap;html=1;fillColor=#dae8fc;strokeColor=#6c8ebf;" parent="1" vertex="1">
          <mxGeometry x="1034" y="449.5" width="150" height="80" as="geometry" />
        </mxCell>
        <mxCell id="OHcfS93DdKTw3La22S7q-231" value="" style="rounded=0;whiteSpace=wrap;html=1;fillColor=#dae8fc;strokeColor=#6c8ebf;" parent="1" vertex="1">
          <mxGeometry x="700" y="450" width="290" height="80" as="geometry" />
        </mxCell>
        <mxCell id="OHcfS93DdKTw3La22S7q-230" value="" style="rounded=0;whiteSpace=wrap;html=1;fillColor=#dae8fc;strokeColor=#6c8ebf;" parent="1" vertex="1">
          <mxGeometry x="360" y="449.5" width="150" height="80" as="geometry" />
        </mxCell>
        <mxCell id="OHcfS93DdKTw3La22S7q-227" value="" style="rounded=0;whiteSpace=wrap;html=1;fillColor=#dae8fc;strokeColor=#6c8ebf;" parent="1" vertex="1">
          <mxGeometry x="10" y="450" width="150" height="260" as="geometry" />
        </mxCell>
        <mxCell id="OHcfS93DdKTw3La22S7q-225" value="" style="rounded=0;whiteSpace=wrap;html=1;fillColor=#e1d5e7;strokeColor=#9673a6;" parent="1" vertex="1">
          <mxGeometry x="1394" y="330" width="210" height="90" as="geometry" />
        </mxCell>
        <mxCell id="OHcfS93DdKTw3La22S7q-224" value="" style="rounded=0;whiteSpace=wrap;html=1;fillColor=#e1d5e7;strokeColor=#9673a6;" parent="1" vertex="1">
          <mxGeometry x="1004" y="330" width="210" height="100" as="geometry" />
        </mxCell>
        <mxCell id="OHcfS93DdKTw3La22S7q-223" value="" style="rounded=0;whiteSpace=wrap;html=1;fillColor=#e1d5e7;strokeColor=#9673a6;" parent="1" vertex="1">
          <mxGeometry x="732" y="330" width="210" height="100" as="geometry" />
        </mxCell>
        <mxCell id="OHcfS93DdKTw3La22S7q-222" value="" style="rounded=0;whiteSpace=wrap;html=1;fillColor=#e1d5e7;strokeColor=#9673a6;" parent="1" vertex="1">
          <mxGeometry x="402" y="330" width="210" height="100" as="geometry" />
        </mxCell>
        <mxCell id="OHcfS93DdKTw3La22S7q-221" value="" style="rounded=0;whiteSpace=wrap;html=1;fillColor=#e1d5e7;strokeColor=#9673a6;" parent="1" vertex="1">
          <mxGeometry x="60" y="330" width="210" height="100" as="geometry" />
        </mxCell>
        <mxCell id="123" value="" style="fillColor=#66FFB3;strokeColor=#b85450;" parent="1" vertex="1">
          <mxGeometry x="732" y="170.00000000000003" width="210" height="99.99999999999994" as="geometry" />
        </mxCell>
        <mxCell id="eEVf-GoddXqgT3L1TzJP-129" style="edgeStyle=orthogonalEdgeStyle;rounded=0;orthogonalLoop=1;jettySize=auto;html=1;exitX=0.5;exitY=1;exitDx=0;exitDy=0;entryX=0.5;entryY=0;entryDx=0;entryDy=0;strokeWidth=2;" edge="1" parent="1" source="2" target="10">
          <mxGeometry relative="1" as="geometry" />
        </mxCell>
        <mxCell id="2" value="Начална страница" style="rounded=1;fillColor=#23445D;gradientColor=none;strokeColor=none;fontColor=#FFFFFF;fontStyle=1;fontFamily=Tahoma;fontSize=14" parent="1" vertex="1">
          <mxGeometry x="742" y="180" width="190" height="80" as="geometry" />
        </mxCell>
        <mxCell id="4" value="Информационни &#xa;технологии" style="rounded=1;fillColor=#23445D;gradientColor=none;strokeColor=none;fontColor=#FFFFFF;fontStyle=1;fontFamily=Tahoma;fontSize=14" parent="1" vertex="1">
          <mxGeometry x="1013.9999999999998" y="340" width="190" height="80" as="geometry" />
        </mxCell>
        <mxCell id="9" value="" style="edgeStyle=elbowEdgeStyle;elbow=vertical;strokeWidth=2;rounded=0" parent="1" source="2" target="4" edge="1">
          <mxGeometry x="337" y="215.5" width="100" height="100" as="geometry">
            <mxPoint x="187" y="320" as="sourcePoint" />
            <mxPoint x="287" y="220" as="targetPoint" />
          </mxGeometry>
        </mxCell>
        <mxCell id="10" value="Лителатура" style="rounded=1;fillColor=#23445D;gradientColor=none;strokeColor=none;fontColor=#FFFFFF;fontStyle=1;fontFamily=Tahoma;fontSize=14" parent="1" vertex="1">
          <mxGeometry x="742" y="340" width="190" height="80" as="geometry" />
        </mxCell>
        <mxCell id="12" value="Български език" style="rounded=1;fillColor=#23445D;gradientColor=none;strokeColor=none;fontColor=#FFFFFF;fontStyle=1;fontFamily=Tahoma;fontSize=14" parent="1" vertex="1">
          <mxGeometry x="411.9999999999999" y="340" width="190" height="80" as="geometry" />
        </mxCell>
        <mxCell id="13" value="Информация" style="rounded=1;fillColor=#23445D;gradientColor=none;strokeColor=none;fontColor=#FFFFFF;fontStyle=1;fontFamily=Tahoma;fontSize=14" parent="1" vertex="1">
          <mxGeometry x="70" y="339.5" width="190" height="80" as="geometry" />
        </mxCell>
        <mxCell id="14" value="Дати на &#xa;провеждане " style="rounded=1;fillColor=#23445D;gradientColor=none;strokeColor=none;fontColor=#FFFFFF;fontStyle=1;fontFamily=Tahoma;fontSize=14" parent="1" vertex="1">
          <mxGeometry x="20" y="459.5" width="130" height="60" as="geometry" />
        </mxCell>
        <mxCell id="15" value="Поправки и&#xa;често задавани&#xa;въпроси" style="rounded=1;fillColor=#23445D;gradientColor=none;strokeColor=none;fontColor=#FFFFFF;fontStyle=1;fontFamily=Tahoma;fontSize=14" parent="1" vertex="1">
          <mxGeometry x="20" y="549.5" width="130" height="60" as="geometry" />
        </mxCell>
        <mxCell id="16" value="Редовен изпит" style="rounded=1;fillColor=#23445D;gradientColor=none;strokeColor=none;fontColor=#FFFFFF;fontStyle=1;fontFamily=Tahoma;fontSize=14" parent="1" vertex="1">
          <mxGeometry x="200" y="459.5" width="130" height="60" as="geometry" />
        </mxCell>
        <mxCell id="17" value="Поправителен" style="rounded=1;fillColor=#23445D;gradientColor=none;strokeColor=none;fontColor=#FFFFFF;fontStyle=1;fontFamily=Tahoma;fontSize=14" parent="1" vertex="1">
          <mxGeometry x="200" y="549.5" width="130" height="60" as="geometry" />
        </mxCell>
        <mxCell id="eEVf-GoddXqgT3L1TzJP-153" style="edgeStyle=orthogonalEdgeStyle;rounded=0;orthogonalLoop=1;jettySize=auto;html=1;exitX=0.5;exitY=1;exitDx=0;exitDy=0;entryX=0;entryY=0.5;entryDx=0;entryDy=0;" edge="1" parent="1" source="18" target="eEVf-GoddXqgT3L1TzJP-143">
          <mxGeometry relative="1" as="geometry" />
        </mxCell>
        <mxCell id="18" value="МОН" style="rounded=1;fillColor=#23445D;gradientColor=none;strokeColor=none;fontColor=#FFFFFF;fontStyle=1;fontFamily=Tahoma;fontSize=14" parent="1" vertex="1">
          <mxGeometry x="200" y="639.5" width="130" height="60" as="geometry" />
        </mxCell>
        <mxCell id="eEVf-GoddXqgT3L1TzJP-152" style="edgeStyle=orthogonalEdgeStyle;rounded=0;orthogonalLoop=1;jettySize=auto;html=1;exitX=0.5;exitY=1;exitDx=0;exitDy=0;entryX=0;entryY=0.25;entryDx=0;entryDy=0;" edge="1" parent="1" source="25" target="eEVf-GoddXqgT3L1TzJP-143">
          <mxGeometry relative="1" as="geometry" />
        </mxCell>
        <mxCell id="25" value="Материали по&#xa;български език" style="rounded=1;fillColor=#23445D;gradientColor=none;strokeColor=none;fontColor=#FFFFFF;fontStyle=1;fontFamily=Tahoma;fontSize=14" parent="1" vertex="1">
          <mxGeometry x="370" y="459" width="130" height="60" as="geometry" />
        </mxCell>
        <mxCell id="33" value="Пунктуация" style="rounded=1;fillColor=#23445D;gradientColor=none;strokeColor=none;fontColor=#FFFFFF;fontStyle=1;fontFamily=Tahoma;fontSize=14" parent="1" vertex="1">
          <mxGeometry x="540" y="459.5" width="130" height="60" as="geometry" />
        </mxCell>
        <mxCell id="34" value="Граматика" style="rounded=1;fillColor=#23445D;gradientColor=none;strokeColor=none;fontColor=#FFFFFF;fontStyle=1;fontFamily=Tahoma;fontSize=14" parent="1" vertex="1">
          <mxGeometry x="540" y="549.5" width="130" height="60" as="geometry" />
        </mxCell>
        <mxCell id="35" value="Лексика" style="rounded=1;fillColor=#23445D;gradientColor=none;strokeColor=none;fontColor=#FFFFFF;fontStyle=1;fontFamily=Tahoma;fontSize=14" parent="1" vertex="1">
          <mxGeometry x="540" y="639.5" width="130" height="60" as="geometry" />
        </mxCell>
        <mxCell id="36" value="Правописн" style="rounded=1;fillColor=#23445D;gradientColor=none;strokeColor=none;fontColor=#FFFFFF;fontStyle=1;fontFamily=Tahoma;fontSize=14" parent="1" vertex="1">
          <mxGeometry x="540" y="729.5" width="133" height="60" as="geometry" />
        </mxCell>
        <mxCell id="41" value="Произведения&#xa;от 11 клас" style="rounded=1;fillColor=#23445D;gradientColor=none;strokeColor=none;fontColor=#FFFFFF;fontStyle=1;fontFamily=Tahoma;fontSize=14" parent="1" vertex="1">
          <mxGeometry x="706.75" y="459" width="130" height="60" as="geometry" />
        </mxCell>
        <mxCell id="42" value="Произведения &#xa;от 12 клас" style="rounded=1;fillColor=#23445D;gradientColor=none;strokeColor=none;fontColor=#FFFFFF;fontStyle=1;fontFamily=Tahoma;fontSize=14" parent="1" vertex="1">
          <mxGeometry x="850" y="459" width="130" height="60" as="geometry" />
        </mxCell>
        <mxCell id="59" value="" style="edgeStyle=elbowEdgeStyle;elbow=vertical;strokeWidth=2;rounded=0;exitX=0.5;exitY=1;exitDx=0;exitDy=0;" parent="1" source="2" target="12" edge="1">
          <mxGeometry x="347" y="225.5" width="100" height="100" as="geometry">
            <mxPoint x="711.9999999999999" y="280" as="sourcePoint" />
            <mxPoint x="1316.9999999999998" y="350" as="targetPoint" />
            <Array as="points">
              <mxPoint x="690" y="300" />
            </Array>
          </mxGeometry>
        </mxCell>
        <mxCell id="61" value="" style="edgeStyle=elbowEdgeStyle;elbow=vertical;strokeWidth=2;rounded=0;exitX=0.5;exitY=1;exitDx=0;exitDy=0;" parent="1" source="2" target="13" edge="1">
          <mxGeometry x="-23" y="135.5" width="100" height="100" as="geometry">
            <mxPoint x="-173" y="240" as="sourcePoint" />
            <mxPoint x="-73" y="140" as="targetPoint" />
            <Array as="points">
              <mxPoint x="520" y="300" />
            </Array>
          </mxGeometry>
        </mxCell>
        <mxCell id="62" value="" style="edgeStyle=elbowEdgeStyle;elbow=vertical;strokeWidth=2;rounded=0" parent="1" source="13" target="14" edge="1">
          <mxGeometry x="-23" y="135.5" width="100" height="100" as="geometry">
            <mxPoint x="-60" y="239.5" as="sourcePoint" />
            <mxPoint x="40" y="139.5" as="targetPoint" />
          </mxGeometry>
        </mxCell>
        <mxCell id="64" value="" style="edgeStyle=elbowEdgeStyle;elbow=horizontal;strokeWidth=2;rounded=0;exitX=1;exitY=0.5;exitDx=0;exitDy=0;" parent="1" source="14" target="16" edge="1">
          <mxGeometry x="-23" y="135.5" width="100" height="100" as="geometry">
            <mxPoint x="-60" y="239.5" as="sourcePoint" />
            <mxPoint x="40" y="139.5" as="targetPoint" />
            <Array as="points">
              <mxPoint x="203" y="490" />
            </Array>
          </mxGeometry>
        </mxCell>
        <mxCell id="65" value="" style="edgeStyle=elbowEdgeStyle;elbow=horizontal;strokeWidth=2;rounded=0;exitX=1;exitY=0.5;exitDx=0;exitDy=0;" parent="1" source="15" target="17" edge="1">
          <mxGeometry x="-23" y="135.5" width="100" height="100" as="geometry">
            <mxPoint x="-60" y="239.5" as="sourcePoint" />
            <mxPoint x="40" y="139.5" as="targetPoint" />
            <Array as="points">
              <mxPoint x="193" y="580" />
            </Array>
          </mxGeometry>
        </mxCell>
        <mxCell id="76" value="" style="edgeStyle=elbowEdgeStyle;elbow=horizontal;strokeWidth=2;rounded=0" parent="1" target="34" edge="1">
          <mxGeometry x="-23" y="135.5" width="100" height="100" as="geometry">
            <mxPoint x="520" y="494.5" as="sourcePoint" />
            <mxPoint x="-150" y="139.5" as="targetPoint" />
            <Array as="points">
              <mxPoint x="520" y="539.5" />
            </Array>
          </mxGeometry>
        </mxCell>
        <mxCell id="80" value="" style="edgeStyle=elbowEdgeStyle;elbow=horizontal;strokeWidth=2;rounded=0;entryX=0;entryY=0.5;entryDx=0;entryDy=0;" parent="1" target="36" edge="1">
          <mxGeometry x="-23" y="135.5" width="100" height="100" as="geometry">
            <mxPoint x="530" y="489.5" as="sourcePoint" />
            <mxPoint x="540" y="764.5" as="targetPoint" />
            <Array as="points">
              <mxPoint x="520" y="709.5" />
            </Array>
          </mxGeometry>
        </mxCell>
        <mxCell id="100" value="" style="edgeStyle=elbowEdgeStyle;elbow=vertical;strokeWidth=2;rounded=0;entryX=0.536;entryY=-0.01;entryDx=0;entryDy=0;entryPerimeter=0;" parent="1" source="12" target="25" edge="1">
          <mxGeometry x="-23" y="135.5" width="100" height="100" as="geometry">
            <mxPoint x="-173" y="240" as="sourcePoint" />
            <mxPoint x="-73" y="140" as="targetPoint" />
          </mxGeometry>
        </mxCell>
        <mxCell id="102" value="" style="edgeStyle=elbowEdgeStyle;elbow=vertical;strokeWidth=2;rounded=0;exitX=1;exitY=0.5;exitDx=0;exitDy=0;entryX=0;entryY=0.5;entryDx=0;entryDy=0;" parent="1" source="25" target="33" edge="1">
          <mxGeometry x="-23" y="135.5" width="100" height="100" as="geometry">
            <mxPoint x="-173" y="240" as="sourcePoint" />
            <mxPoint x="530" y="489.5" as="targetPoint" />
          </mxGeometry>
        </mxCell>
        <mxCell id="103" value="" style="edgeStyle=elbowEdgeStyle;elbow=vertical;strokeWidth=2;rounded=0" parent="1" source="10" target="41" edge="1">
          <mxGeometry x="-23" y="135.5" width="100" height="100" as="geometry">
            <mxPoint x="-228" y="240" as="sourcePoint" />
            <mxPoint x="-128" y="140" as="targetPoint" />
          </mxGeometry>
        </mxCell>
        <mxCell id="104" value="" style="edgeStyle=elbowEdgeStyle;elbow=vertical;strokeWidth=2;rounded=0" parent="1" source="4" edge="1">
          <mxGeometry x="-23" y="135.5" width="100" height="100" as="geometry">
            <mxPoint x="-371" y="240" as="sourcePoint" />
            <mxPoint x="1109" y="460" as="targetPoint" />
          </mxGeometry>
        </mxCell>
        <mxCell id="107" value="" style="edgeStyle=elbowEdgeStyle;elbow=vertical;rounded=0;strokeWidth=2" parent="1" source="14" target="15" edge="1">
          <mxGeometry x="-23" y="135.5" width="100" height="100" as="geometry">
            <mxPoint x="-60" y="239.5" as="sourcePoint" />
            <mxPoint x="40" y="139.5" as="targetPoint" />
          </mxGeometry>
        </mxCell>
        <mxCell id="OHcfS93DdKTw3La22S7q-132" value="Информатика" style="rounded=1;fillColor=#23445D;gradientColor=none;strokeColor=none;fontColor=#FFFFFF;fontStyle=1;fontFamily=Tahoma;fontSize=14" parent="1" vertex="1">
          <mxGeometry x="1404" y="340" width="180" height="70" as="geometry" />
        </mxCell>
        <mxCell id="OHcfS93DdKTw3La22S7q-169" value="Материали по&#xa;учебната &#xa;програма" style="rounded=1;fillColor=#23445D;gradientColor=none;strokeColor=none;fontColor=#FFFFFF;fontStyle=1;fontFamily=Tahoma;fontSize=14" parent="1" vertex="1">
          <mxGeometry x="1424" y="449.50000000000006" width="130" height="60" as="geometry" />
        </mxCell>
        <mxCell id="OHcfS93DdKTw3La22S7q-170" value="Списък и &#xa;материали от &#xa;модул 1" style="rounded=1;fillColor=#23445D;gradientColor=none;strokeColor=none;fontColor=#FFFFFF;fontStyle=1;fontFamily=Tahoma;fontSize=14" parent="1" vertex="1">
          <mxGeometry x="1424" y="539.5" width="130" height="60" as="geometry" />
        </mxCell>
        <mxCell id="OHcfS93DdKTw3La22S7q-171" value="Списък и&#xa;материали от &#xa;модул 2" style="rounded=1;fillColor=#23445D;gradientColor=none;strokeColor=none;fontColor=#FFFFFF;fontStyle=1;fontFamily=Tahoma;fontSize=14" parent="1" vertex="1">
          <mxGeometry x="1424" y="629.5" width="130" height="60" as="geometry" />
        </mxCell>
        <mxCell id="OHcfS93DdKTw3La22S7q-172" value="Списък и&#xa;материали от &#xa;модул 3" style="rounded=1;fillColor=#23445D;gradientColor=none;strokeColor=none;fontColor=#FFFFFF;fontStyle=1;fontFamily=Tahoma;fontSize=14" parent="1" vertex="1">
          <mxGeometry x="1424" y="719.5000000000001" width="130" height="60" as="geometry" />
        </mxCell>
        <mxCell id="OHcfS93DdKTw3La22S7q-173" value="Изпити от &#xa;предходни &#xa;години" style="rounded=1;fillColor=#23445D;gradientColor=none;strokeColor=none;fontColor=#FFFFFF;fontStyle=1;fontFamily=Tahoma;fontSize=14" parent="1" vertex="1">
          <mxGeometry x="1604" y="449.50000000000006" width="130" height="60" as="geometry" />
        </mxCell>
        <mxCell id="OHcfS93DdKTw3La22S7q-174" value="Информатика" style="rounded=1;fillColor=#23445D;gradientColor=none;strokeColor=none;fontColor=#FFFFFF;fontStyle=1;fontFamily=Tahoma;fontSize=14" parent="1" vertex="1">
          <mxGeometry x="1604" y="539.5" width="130" height="60" as="geometry" />
        </mxCell>
        <mxCell id="OHcfS93DdKTw3La22S7q-177" value="Учебници" style="rounded=1;fillColor=#23445D;gradientColor=none;strokeColor=none;fontColor=#FFFFFF;fontStyle=1;fontFamily=Tahoma;fontSize=14" parent="1" vertex="1">
          <mxGeometry x="1254" y="449.5" width="130" height="60" as="geometry" />
        </mxCell>
        <mxCell id="OHcfS93DdKTw3La22S7q-178" value="Python" style="rounded=1;fillColor=#23445D;gradientColor=none;strokeColor=none;fontColor=#FFFFFF;fontStyle=1;fontFamily=Tahoma;fontSize=14" parent="1" vertex="1">
          <mxGeometry x="1254" y="539.5" width="130" height="60" as="geometry" />
        </mxCell>
        <mxCell id="OHcfS93DdKTw3La22S7q-179" value="Java" style="rounded=1;fillColor=#23445D;gradientColor=none;strokeColor=none;fontColor=#FFFFFF;fontStyle=1;fontFamily=Tahoma;fontSize=14" parent="1" vertex="1">
          <mxGeometry x="1254" y="629.5" width="130" height="60" as="geometry" />
        </mxCell>
        <mxCell id="OHcfS93DdKTw3La22S7q-180" value="Java Script" style="rounded=1;fillColor=#23445D;gradientColor=none;strokeColor=none;fontColor=#FFFFFF;fontStyle=1;fontFamily=Tahoma;fontSize=14" parent="1" vertex="1">
          <mxGeometry x="1254" y="719.5" width="130" height="60" as="geometry" />
        </mxCell>
        <mxCell id="OHcfS93DdKTw3La22S7q-181" value="C#" style="rounded=1;fillColor=#23445D;gradientColor=none;strokeColor=none;fontColor=#FFFFFF;fontStyle=1;fontFamily=Tahoma;fontSize=14" parent="1" vertex="1">
          <mxGeometry x="1254" y="809.5" width="130" height="60" as="geometry" />
        </mxCell>
        <mxCell id="OHcfS93DdKTw3La22S7q-182" value="HTML" style="rounded=1;fillColor=#23445D;gradientColor=none;strokeColor=none;fontColor=#FFFFFF;fontStyle=1;fontFamily=Tahoma;fontSize=14" parent="1" vertex="1">
          <mxGeometry x="1254" y="899.5" width="130" height="60" as="geometry" />
        </mxCell>
        <mxCell id="OHcfS93DdKTw3La22S7q-183" value="CSS" style="rounded=1;fillColor=#23445D;gradientColor=none;strokeColor=none;fontColor=#FFFFFF;fontStyle=1;fontFamily=Tahoma;fontSize=14" parent="1" vertex="1">
          <mxGeometry x="1254" y="980" width="130" height="60" as="geometry" />
        </mxCell>
        <mxCell id="OHcfS93DdKTw3La22S7q-184" value="" style="edgeStyle=elbowEdgeStyle;elbow=horizontal;strokeWidth=2;rounded=0" parent="1" source="OHcfS93DdKTw3La22S7q-169" target="OHcfS93DdKTw3La22S7q-170" edge="1">
          <mxGeometry x="-23" y="135.5" width="100" height="100" as="geometry">
            <mxPoint x="184" y="229.5" as="sourcePoint" />
            <mxPoint x="284" y="129.5" as="targetPoint" />
            <Array as="points">
              <mxPoint x="1404" y="539.5" />
            </Array>
          </mxGeometry>
        </mxCell>
        <mxCell id="OHcfS93DdKTw3La22S7q-185" value="" style="edgeStyle=elbowEdgeStyle;elbow=horizontal;strokeWidth=2;rounded=0" parent="1" source="OHcfS93DdKTw3La22S7q-169" target="OHcfS93DdKTw3La22S7q-171" edge="1">
          <mxGeometry x="-23" y="135.5" width="100" height="100" as="geometry">
            <mxPoint x="184" y="229.5" as="sourcePoint" />
            <mxPoint x="284" y="129.5" as="targetPoint" />
            <Array as="points">
              <mxPoint x="1404" y="569.5" />
            </Array>
          </mxGeometry>
        </mxCell>
        <mxCell id="OHcfS93DdKTw3La22S7q-186" value="" style="edgeStyle=elbowEdgeStyle;elbow=horizontal;strokeWidth=2;rounded=0" parent="1" source="OHcfS93DdKTw3La22S7q-169" target="OHcfS93DdKTw3La22S7q-172" edge="1">
          <mxGeometry x="-23" y="135.5" width="100" height="100" as="geometry">
            <mxPoint x="184" y="229.5" as="sourcePoint" />
            <mxPoint x="284" y="129.5" as="targetPoint" />
            <Array as="points">
              <mxPoint x="1404" y="619.5" />
            </Array>
          </mxGeometry>
        </mxCell>
        <mxCell id="OHcfS93DdKTw3La22S7q-187" value="" style="edgeStyle=elbowEdgeStyle;elbow=horizontal;strokeWidth=2;rounded=0" parent="1" source="OHcfS93DdKTw3La22S7q-173" target="OHcfS93DdKTw3La22S7q-174" edge="1">
          <mxGeometry x="-23" y="135.5" width="100" height="100" as="geometry">
            <mxPoint x="189" y="229.5" as="sourcePoint" />
            <mxPoint x="289" y="129.5" as="targetPoint" />
            <Array as="points">
              <mxPoint x="1579" y="529.5" />
            </Array>
          </mxGeometry>
        </mxCell>
        <mxCell id="OHcfS93DdKTw3La22S7q-190" value="" style="edgeStyle=elbowEdgeStyle;elbow=horizontal;strokeWidth=2;rounded=0" parent="1" source="OHcfS93DdKTw3La22S7q-177" target="OHcfS93DdKTw3La22S7q-178" edge="1">
          <mxGeometry x="-23" y="135.5" width="100" height="100" as="geometry">
            <mxPoint x="-336" y="229.5" as="sourcePoint" />
            <mxPoint x="-236" y="129.5" as="targetPoint" />
            <Array as="points">
              <mxPoint x="1234" y="529.5" />
            </Array>
          </mxGeometry>
        </mxCell>
        <mxCell id="OHcfS93DdKTw3La22S7q-191" value="" style="edgeStyle=elbowEdgeStyle;elbow=horizontal;strokeWidth=2;rounded=0" parent="1" source="OHcfS93DdKTw3La22S7q-177" target="OHcfS93DdKTw3La22S7q-179" edge="1">
          <mxGeometry x="-23" y="135.5" width="100" height="100" as="geometry">
            <mxPoint x="-336" y="229.5" as="sourcePoint" />
            <mxPoint x="-236" y="129.5" as="targetPoint" />
            <Array as="points">
              <mxPoint x="1234" y="569.5" />
            </Array>
          </mxGeometry>
        </mxCell>
        <mxCell id="OHcfS93DdKTw3La22S7q-192" value="" style="edgeStyle=elbowEdgeStyle;elbow=horizontal;strokeWidth=2;rounded=0" parent="1" source="OHcfS93DdKTw3La22S7q-177" target="OHcfS93DdKTw3La22S7q-180" edge="1">
          <mxGeometry x="-23" y="135.5" width="100" height="100" as="geometry">
            <mxPoint x="-336" y="229.5" as="sourcePoint" />
            <mxPoint x="-236" y="129.5" as="targetPoint" />
            <Array as="points">
              <mxPoint x="1234" y="619.5" />
            </Array>
          </mxGeometry>
        </mxCell>
        <mxCell id="OHcfS93DdKTw3La22S7q-193" value="" style="edgeStyle=elbowEdgeStyle;elbow=horizontal;strokeWidth=2;rounded=0" parent="1" source="OHcfS93DdKTw3La22S7q-177" target="OHcfS93DdKTw3La22S7q-181" edge="1">
          <mxGeometry x="-23" y="135.5" width="100" height="100" as="geometry">
            <mxPoint x="-336" y="229.5" as="sourcePoint" />
            <mxPoint x="-236" y="129.5" as="targetPoint" />
            <Array as="points">
              <mxPoint x="1234" y="669.5" />
            </Array>
          </mxGeometry>
        </mxCell>
        <mxCell id="OHcfS93DdKTw3La22S7q-194" value="" style="edgeStyle=elbowEdgeStyle;elbow=horizontal;strokeWidth=2;rounded=0" parent="1" source="OHcfS93DdKTw3La22S7q-177" target="OHcfS93DdKTw3La22S7q-182" edge="1">
          <mxGeometry x="-23" y="135.5" width="100" height="100" as="geometry">
            <mxPoint x="-336" y="229.5" as="sourcePoint" />
            <mxPoint x="-236" y="129.5" as="targetPoint" />
            <Array as="points">
              <mxPoint x="1234" y="719.5" />
            </Array>
          </mxGeometry>
        </mxCell>
        <mxCell id="OHcfS93DdKTw3La22S7q-195" value="" style="edgeStyle=elbowEdgeStyle;elbow=horizontal;strokeWidth=2;rounded=0" parent="1" source="OHcfS93DdKTw3La22S7q-177" target="OHcfS93DdKTw3La22S7q-183" edge="1">
          <mxGeometry x="-23" y="135.5" width="100" height="100" as="geometry">
            <mxPoint x="-336" y="229.5" as="sourcePoint" />
            <mxPoint x="-236" y="129.5" as="targetPoint" />
            <Array as="points">
              <mxPoint x="1234" y="759.5" />
            </Array>
          </mxGeometry>
        </mxCell>
        <mxCell id="OHcfS93DdKTw3La22S7q-196" value="" style="edgeStyle=elbowEdgeStyle;elbow=vertical;strokeWidth=2;rounded=0" parent="1" edge="1">
          <mxGeometry x="-23" y="135.5" width="100" height="100" as="geometry">
            <mxPoint x="1494" y="410" as="sourcePoint" />
            <mxPoint x="1669" y="450" as="targetPoint" />
          </mxGeometry>
        </mxCell>
        <mxCell id="OHcfS93DdKTw3La22S7q-197" value="" style="edgeStyle=elbowEdgeStyle;elbow=vertical;strokeWidth=2;rounded=0" parent="1" edge="1">
          <mxGeometry x="-23" y="135.5" width="100" height="100" as="geometry">
            <mxPoint x="1494" y="414.5" as="sourcePoint" />
            <mxPoint x="1493.8999999999999" y="450" as="targetPoint" />
            <Array as="points">
              <mxPoint x="1494" y="444.5" />
            </Array>
          </mxGeometry>
        </mxCell>
        <mxCell id="OHcfS93DdKTw3La22S7q-198" value="" style="edgeStyle=elbowEdgeStyle;elbow=vertical;strokeWidth=2;rounded=0;exitX=0.5;exitY=1;exitDx=0;exitDy=0;" parent="1" source="OHcfS93DdKTw3La22S7q-132" edge="1">
          <mxGeometry x="-23" y="135.5" width="100" height="100" as="geometry">
            <mxPoint x="1489" y="410" as="sourcePoint" />
            <mxPoint x="1314" y="450" as="targetPoint" />
          </mxGeometry>
        </mxCell>
        <mxCell id="eEVf-GoddXqgT3L1TzJP-149" style="edgeStyle=orthogonalEdgeStyle;rounded=0;orthogonalLoop=1;jettySize=auto;html=1;exitX=0.5;exitY=1;exitDx=0;exitDy=0;entryX=1;entryY=0.5;entryDx=0;entryDy=0;" edge="1" parent="1" source="OHcfS93DdKTw3La22S7q-199" target="eEVf-GoddXqgT3L1TzJP-143">
          <mxGeometry relative="1" as="geometry" />
        </mxCell>
        <mxCell id="OHcfS93DdKTw3La22S7q-199" value="Списък и&#xa;материали от &#xa;модул 4" style="rounded=1;fillColor=#23445D;gradientColor=none;strokeColor=none;fontColor=#FFFFFF;fontStyle=1;fontFamily=Tahoma;fontSize=14" parent="1" vertex="1">
          <mxGeometry x="1424" y="804.0000000000001" width="130" height="60" as="geometry" />
        </mxCell>
        <mxCell id="OHcfS93DdKTw3La22S7q-200" value="" style="edgeStyle=elbowEdgeStyle;elbow=horizontal;strokeWidth=2;rounded=0;entryX=0;entryY=0.5;entryDx=0;entryDy=0;" parent="1" target="OHcfS93DdKTw3La22S7q-199" edge="1">
          <mxGeometry x="-23" y="135.5" width="100" height="100" as="geometry">
            <mxPoint x="1424" y="479.5" as="sourcePoint" />
            <mxPoint x="1424" y="749.5" as="targetPoint" />
            <Array as="points">
              <mxPoint x="1404" y="619" />
            </Array>
          </mxGeometry>
        </mxCell>
        <mxCell id="OHcfS93DdKTw3La22S7q-202" value="Материали по&#xa;учебната &#xa;програма" style="rounded=1;fillColor=#23445D;gradientColor=none;strokeColor=none;fontColor=#FFFFFF;fontStyle=1;fontFamily=Tahoma;fontSize=14" parent="1" vertex="1">
          <mxGeometry x="1044" y="459.50000000000006" width="130" height="60" as="geometry" />
        </mxCell>
        <mxCell id="OHcfS93DdKTw3La22S7q-203" value="Списък и &#xa;материали от &#xa;модул 1" style="rounded=1;fillColor=#23445D;gradientColor=none;strokeColor=none;fontColor=#FFFFFF;fontStyle=1;fontFamily=Tahoma;fontSize=14" parent="1" vertex="1">
          <mxGeometry x="1044" y="549.5" width="130" height="60" as="geometry" />
        </mxCell>
        <mxCell id="OHcfS93DdKTw3La22S7q-204" value="Списък и&#xa;материали от &#xa;модул 2" style="rounded=1;fillColor=#23445D;gradientColor=none;strokeColor=none;fontColor=#FFFFFF;fontStyle=1;fontFamily=Tahoma;fontSize=14" parent="1" vertex="1">
          <mxGeometry x="1044" y="639.5" width="130" height="60" as="geometry" />
        </mxCell>
        <mxCell id="OHcfS93DdKTw3La22S7q-205" value="Списък и&#xa;материали от &#xa;модул 3" style="rounded=1;fillColor=#23445D;gradientColor=none;strokeColor=none;fontColor=#FFFFFF;fontStyle=1;fontFamily=Tahoma;fontSize=14" parent="1" vertex="1">
          <mxGeometry x="1044" y="729.5000000000001" width="130" height="60" as="geometry" />
        </mxCell>
        <mxCell id="OHcfS93DdKTw3La22S7q-206" value="" style="edgeStyle=elbowEdgeStyle;elbow=horizontal;strokeWidth=2;rounded=0" parent="1" source="OHcfS93DdKTw3La22S7q-202" target="OHcfS93DdKTw3La22S7q-203" edge="1">
          <mxGeometry x="-23" y="135.5" width="100" height="100" as="geometry">
            <mxPoint x="-196" y="239.5" as="sourcePoint" />
            <mxPoint x="-96" y="139.5" as="targetPoint" />
            <Array as="points">
              <mxPoint x="1024" y="549.5" />
            </Array>
          </mxGeometry>
        </mxCell>
        <mxCell id="OHcfS93DdKTw3La22S7q-207" value="" style="edgeStyle=elbowEdgeStyle;elbow=horizontal;strokeWidth=2;rounded=0" parent="1" source="OHcfS93DdKTw3La22S7q-202" target="OHcfS93DdKTw3La22S7q-204" edge="1">
          <mxGeometry x="-23" y="135.5" width="100" height="100" as="geometry">
            <mxPoint x="-196" y="239.5" as="sourcePoint" />
            <mxPoint x="-96" y="139.5" as="targetPoint" />
            <Array as="points">
              <mxPoint x="1024" y="579.5" />
            </Array>
          </mxGeometry>
        </mxCell>
        <mxCell id="OHcfS93DdKTw3La22S7q-208" value="" style="edgeStyle=elbowEdgeStyle;elbow=horizontal;strokeWidth=2;rounded=0" parent="1" source="OHcfS93DdKTw3La22S7q-202" target="OHcfS93DdKTw3La22S7q-205" edge="1">
          <mxGeometry x="-23" y="135.5" width="100" height="100" as="geometry">
            <mxPoint x="-196" y="239.5" as="sourcePoint" />
            <mxPoint x="-96" y="139.5" as="targetPoint" />
            <Array as="points">
              <mxPoint x="1024" y="629.5" />
            </Array>
          </mxGeometry>
        </mxCell>
        <mxCell id="eEVf-GoddXqgT3L1TzJP-147" style="edgeStyle=orthogonalEdgeStyle;rounded=0;orthogonalLoop=1;jettySize=auto;html=1;exitX=0.5;exitY=1;exitDx=0;exitDy=0;" edge="1" parent="1" source="OHcfS93DdKTw3La22S7q-209">
          <mxGeometry relative="1" as="geometry">
            <mxPoint x="850" y="1150.0000000000002" as="targetPoint" />
          </mxGeometry>
        </mxCell>
        <mxCell id="OHcfS93DdKTw3La22S7q-209" value="Списък и&#xa;материали от &#xa;модул 4" style="rounded=1;fillColor=#23445D;gradientColor=none;strokeColor=none;fontColor=#FFFFFF;fontStyle=1;fontFamily=Tahoma;fontSize=14" parent="1" vertex="1">
          <mxGeometry x="1044" y="814.0000000000001" width="130" height="60" as="geometry" />
        </mxCell>
        <mxCell id="OHcfS93DdKTw3La22S7q-210" value="" style="edgeStyle=elbowEdgeStyle;elbow=horizontal;strokeWidth=2;rounded=0;entryX=0;entryY=0.5;entryDx=0;entryDy=0;" parent="1" target="OHcfS93DdKTw3La22S7q-209" edge="1">
          <mxGeometry x="-23" y="135.5" width="100" height="100" as="geometry">
            <mxPoint x="1044" y="489.5" as="sourcePoint" />
            <mxPoint x="1044" y="759.5" as="targetPoint" />
            <Array as="points">
              <mxPoint x="1024" y="629" />
            </Array>
          </mxGeometry>
        </mxCell>
        <mxCell id="eEVf-GoddXqgT3L1TzJP-154" style="edgeStyle=orthogonalEdgeStyle;rounded=0;orthogonalLoop=1;jettySize=auto;html=1;exitX=0.5;exitY=1;exitDx=0;exitDy=0;entryX=0;entryY=0.75;entryDx=0;entryDy=0;" edge="1" parent="1" source="OHcfS93DdKTw3La22S7q-212" target="eEVf-GoddXqgT3L1TzJP-143">
          <mxGeometry relative="1" as="geometry" />
        </mxCell>
        <mxCell id="OHcfS93DdKTw3La22S7q-212" value="Новини" style="rounded=1;fillColor=#23445D;gradientColor=none;strokeColor=none;fontColor=#FFFFFF;fontStyle=1;fontFamily=Tahoma;fontSize=14" parent="1" vertex="1">
          <mxGeometry x="20" y="639.5" width="130" height="60" as="geometry" />
        </mxCell>
        <mxCell id="OHcfS93DdKTw3La22S7q-213" value="" style="edgeStyle=elbowEdgeStyle;elbow=vertical;rounded=0;strokeWidth=2" parent="1" edge="1">
          <mxGeometry x="-23" y="135.5" width="100" height="100" as="geometry">
            <mxPoint x="84.75999999999999" y="609" as="sourcePoint" />
            <mxPoint x="84.75999999999999" y="639" as="targetPoint" />
          </mxGeometry>
        </mxCell>
        <mxCell id="OHcfS93DdKTw3La22S7q-216" value="" style="edgeStyle=elbowEdgeStyle;elbow=horizontal;strokeWidth=2;rounded=0;exitX=1;exitY=0.5;exitDx=0;exitDy=0;" parent="1" edge="1">
          <mxGeometry x="-23" y="135.5" width="100" height="100" as="geometry">
            <mxPoint x="150" y="668.8" as="sourcePoint" />
            <mxPoint x="200" y="668.8" as="targetPoint" />
            <Array as="points">
              <mxPoint x="193" y="668.8" />
            </Array>
          </mxGeometry>
        </mxCell>
        <mxCell id="OHcfS93DdKTw3La22S7q-218" value="" style="edgeStyle=elbowEdgeStyle;elbow=horizontal;strokeWidth=2;rounded=0" parent="1" edge="1">
          <mxGeometry x="-23" y="135.5" width="100" height="100" as="geometry">
            <mxPoint x="520" y="582.5" as="sourcePoint" />
            <mxPoint x="540" y="667.5" as="targetPoint" />
            <Array as="points">
              <mxPoint x="520" y="627.5" />
            </Array>
          </mxGeometry>
        </mxCell>
        <mxCell id="OHcfS93DdKTw3La22S7q-219" value="" style="edgeStyle=elbowEdgeStyle;elbow=horizontal;strokeWidth=2;rounded=0" parent="1" edge="1">
          <mxGeometry x="-23" y="135.5" width="100" height="100" as="geometry">
            <mxPoint x="520" y="674.5" as="sourcePoint" />
            <mxPoint x="540" y="759.5" as="targetPoint" />
            <Array as="points">
              <mxPoint x="520" y="719.5" />
            </Array>
          </mxGeometry>
        </mxCell>
        <mxCell id="eEVf-GoddXqgT3L1TzJP-151" style="edgeStyle=orthogonalEdgeStyle;rounded=0;orthogonalLoop=1;jettySize=auto;html=1;exitX=0.5;exitY=1;exitDx=0;exitDy=0;" edge="1" parent="1" source="eEVf-GoddXqgT3L1TzJP-124">
          <mxGeometry relative="1" as="geometry">
            <mxPoint x="819.9999999999998" y="1150.0000000000002" as="targetPoint" />
          </mxGeometry>
        </mxCell>
        <mxCell id="eEVf-GoddXqgT3L1TzJP-124" value="Тестове" style="rounded=1;fillColor=#23445D;gradientColor=none;strokeColor=none;fontColor=#FFFFFF;fontStyle=1;fontFamily=Tahoma;fontSize=14" vertex="1" parent="1">
          <mxGeometry x="537" y="814.5" width="133" height="60" as="geometry" />
        </mxCell>
        <mxCell id="eEVf-GoddXqgT3L1TzJP-127" value="" style="edgeStyle=elbowEdgeStyle;elbow=horizontal;strokeWidth=2;rounded=0;entryX=0;entryY=0.5;entryDx=0;entryDy=0;" edge="1" parent="1" target="eEVf-GoddXqgT3L1TzJP-124">
          <mxGeometry x="-23" y="135.5" width="100" height="100" as="geometry">
            <mxPoint x="520" y="750" as="sourcePoint" />
            <mxPoint x="540" y="835" as="targetPoint" />
            <Array as="points">
              <mxPoint x="520" y="795" />
            </Array>
          </mxGeometry>
        </mxCell>
        <mxCell id="eEVf-GoddXqgT3L1TzJP-132" value="" style="edgeStyle=elbowEdgeStyle;elbow=vertical;strokeWidth=2;rounded=0;entryX=0.5;entryY=0;entryDx=0;entryDy=0;" edge="1" parent="1">
          <mxGeometry x="-23" y="135.5" width="100" height="100" as="geometry">
            <mxPoint x="836.75" y="419.5" as="sourcePoint" />
            <mxPoint x="914.75" y="458.5" as="targetPoint" />
          </mxGeometry>
        </mxCell>
        <mxCell id="eEVf-GoddXqgT3L1TzJP-133" value="" style="endArrow=none;html=1;rounded=0;exitX=0.5;exitY=1;exitDx=0;exitDy=0;entryX=0.5;entryY=1;entryDx=0;entryDy=0;strokeWidth=2;" edge="1" parent="1" source="41" target="42">
          <mxGeometry width="50" height="50" relative="1" as="geometry">
            <mxPoint x="740" y="560" as="sourcePoint" />
            <mxPoint x="790" y="510" as="targetPoint" />
            <Array as="points">
              <mxPoint x="840" y="560" />
            </Array>
          </mxGeometry>
        </mxCell>
        <mxCell id="eEVf-GoddXqgT3L1TzJP-134" value="" style="endArrow=classic;html=1;rounded=0;strokeWidth=2;" edge="1" parent="1">
          <mxGeometry width="50" height="50" relative="1" as="geometry">
            <mxPoint x="840" y="560" as="sourcePoint" />
            <mxPoint x="840" y="580" as="targetPoint" />
            <Array as="points" />
          </mxGeometry>
        </mxCell>
        <mxCell id="eEVf-GoddXqgT3L1TzJP-146" style="edgeStyle=orthogonalEdgeStyle;rounded=0;orthogonalLoop=1;jettySize=auto;html=1;exitX=0.5;exitY=1;exitDx=0;exitDy=0;" edge="1" parent="1" source="eEVf-GoddXqgT3L1TzJP-135">
          <mxGeometry relative="1" as="geometry">
            <mxPoint x="837" y="1150" as="targetPoint" />
          </mxGeometry>
        </mxCell>
        <mxCell id="eEVf-GoddXqgT3L1TzJP-135" value="Тестове" style="rounded=1;fillColor=#23445D;gradientColor=none;strokeColor=none;fontColor=#FFFFFF;fontStyle=1;fontFamily=Tahoma;fontSize=14" vertex="1" parent="1">
          <mxGeometry x="772" y="580" width="130" height="60" as="geometry" />
        </mxCell>
        <mxCell id="eEVf-GoddXqgT3L1TzJP-137" value="" style="edgeStyle=elbowEdgeStyle;elbow=vertical;strokeWidth=2;rounded=0;entryX=0.5;entryY=0;entryDx=0;entryDy=0;exitX=0.5;exitY=1;exitDx=0;exitDy=0;" edge="1" parent="1" source="2" target="OHcfS93DdKTw3La22S7q-132">
          <mxGeometry x="337" y="215.5" width="100" height="100" as="geometry">
            <mxPoint x="1162" y="270" as="sourcePoint" />
            <mxPoint x="1460" y="335" as="targetPoint" />
          </mxGeometry>
        </mxCell>
        <mxCell id="eEVf-GoddXqgT3L1TzJP-150" style="edgeStyle=orthogonalEdgeStyle;rounded=0;orthogonalLoop=1;jettySize=auto;html=1;exitX=0.5;exitY=1;exitDx=0;exitDy=0;entryX=1;entryY=0.75;entryDx=0;entryDy=0;" edge="1" parent="1" source="eEVf-GoddXqgT3L1TzJP-139" target="eEVf-GoddXqgT3L1TzJP-143">
          <mxGeometry relative="1" as="geometry" />
        </mxCell>
        <mxCell id="eEVf-GoddXqgT3L1TzJP-139" value="Информационни&#xa;технологии" style="rounded=1;fillColor=#23445D;gradientColor=none;strokeColor=none;fontColor=#FFFFFF;fontStyle=1;fontFamily=Tahoma;fontSize=14" vertex="1" parent="1">
          <mxGeometry x="1604" y="619.5" width="130" height="60" as="geometry" />
        </mxCell>
        <mxCell id="eEVf-GoddXqgT3L1TzJP-140" value="" style="edgeStyle=elbowEdgeStyle;elbow=horizontal;strokeWidth=2;rounded=0;exitX=0;exitY=0.5;exitDx=0;exitDy=0;" edge="1" parent="1" source="OHcfS93DdKTw3La22S7q-173">
          <mxGeometry x="-23" y="135.5" width="100" height="100" as="geometry">
            <mxPoint x="1604" y="564.5" as="sourcePoint" />
            <mxPoint x="1604" y="654.5" as="targetPoint" />
            <Array as="points">
              <mxPoint x="1579" y="614.5" />
            </Array>
          </mxGeometry>
        </mxCell>
        <mxCell id="eEVf-GoddXqgT3L1TzJP-148" style="edgeStyle=orthogonalEdgeStyle;rounded=0;orthogonalLoop=1;jettySize=auto;html=1;exitX=0.5;exitY=1;exitDx=0;exitDy=0;entryX=1;entryY=0.25;entryDx=0;entryDy=0;" edge="1" parent="1" source="eEVf-GoddXqgT3L1TzJP-141" target="eEVf-GoddXqgT3L1TzJP-143">
          <mxGeometry relative="1" as="geometry">
            <mxPoint x="870" y="1150.0000000000002" as="targetPoint" />
          </mxGeometry>
        </mxCell>
        <mxCell id="eEVf-GoddXqgT3L1TzJP-141" value="Самоучител" style="rounded=1;fillColor=#23445D;gradientColor=none;strokeColor=none;fontColor=#FFFFFF;fontStyle=1;fontFamily=Tahoma;fontSize=14" vertex="1" parent="1">
          <mxGeometry x="1254" y="1059.5" width="130" height="60" as="geometry" />
        </mxCell>
        <mxCell id="eEVf-GoddXqgT3L1TzJP-142" value="" style="edgeStyle=elbowEdgeStyle;elbow=horizontal;strokeWidth=2;rounded=0" edge="1" parent="1">
          <mxGeometry x="-23" y="135.5" width="100" height="100" as="geometry">
            <mxPoint x="1234" y="550" as="sourcePoint" />
            <mxPoint x="1254" y="1090" as="targetPoint" />
            <Array as="points">
              <mxPoint x="1234" y="839.5" />
            </Array>
          </mxGeometry>
        </mxCell>
        <mxCell id="eEVf-GoddXqgT3L1TzJP-143" value="" style="fillColor=#66FFB3;strokeColor=#b85450;" vertex="1" parent="1">
          <mxGeometry x="760" y="1160" width="150" height="70" as="geometry" />
        </mxCell>
        <mxCell id="eEVf-GoddXqgT3L1TzJP-144" value="Източници" style="rounded=1;fillColor=#23445D;gradientColor=none;strokeColor=none;fontColor=#FFFFFF;fontStyle=1;fontFamily=Tahoma;fontSize=14" vertex="1" parent="1">
          <mxGeometry x="770" y="1170" width="130" height="50" as="geometry" />
        </mxCell>
      </root>
    </mxGraphModel>
  </diagram>
</mxfile>
